<svg width="29" height="28" viewBox="0 0 29 28" fill="none" xmlns="http://www.w3.org/2000/svg">
<path d="M10.0995 23.4026L10.0918 23.3428L10.0352 23.3217C9.73104 23.2083 9.445 23.0723 9.17697 22.9139C8.90594 22.7537 8.64007 22.5821 8.37935 22.3989L8.3347 22.3676L8.28416 22.3881L4.11407 24.0865L0.276528 17.6614L3.88146 15.0152L3.92999 14.9796L3.92121 14.92C3.89805 14.7629 3.88657 14.6122 3.88657 14.468V13.5334C3.88657 13.3882 3.89806 13.2371 3.92121 13.08L3.92999 13.0204L3.88146 12.9848L0.276528 10.3386L4.11408 3.91346L8.28416 5.61184L8.3348 5.63246L8.37949 5.60096C8.6386 5.4183 8.90958 5.24699 9.19245 5.08704C9.47459 4.92751 9.75635 4.79098 10.0377 4.67733L10.092 4.65542L10.0995 4.5974L10.6596 0.253839H18.3402L18.9003 4.5974L18.908 4.65723L18.9646 4.67831C19.2688 4.79173 19.5553 4.9277 19.8244 5.08616C20.0962 5.24628 20.3615 5.41784 20.6201 5.60086L20.6649 5.6325L20.7156 5.61184L24.8857 3.91346L28.7232 10.3386L25.1183 12.9848L25.0698 13.0204L25.0786 13.08C25.1017 13.2371 25.1132 13.3882 25.1132 13.5334V14.4666C25.1132 14.6064 25.0911 14.7529 25.0459 14.9063L25.026 14.9737L25.0826 15.0152L28.6875 17.6614L24.8501 24.0863L20.7159 22.3883L20.6651 22.3674L20.6203 22.399C20.3612 22.5817 20.0902 22.753 19.8073 22.9129C19.5252 23.0725 19.2434 23.209 18.962 23.3227L18.9078 23.3446L18.9003 23.4026L18.3402 27.7461H10.6596L10.0995 23.4026ZM14.5713 18.9461C15.9777 18.9461 17.1812 18.4633 18.1763 17.4987C19.1715 16.5341 19.6709 15.366 19.6709 14C19.6709 12.634 19.1715 11.4659 18.1763 10.5013C17.1812 9.53671 15.9777 9.05384 14.5713 9.05384C13.1416 9.05384 11.9315 9.5364 10.9473 10.5017C9.96367 11.4665 9.47079 12.6344 9.47176 14.0001C9.47274 15.3656 9.96605 16.5335 10.9487 17.4983C11.932 18.4636 13.1416 18.9461 14.5713 18.9461Z" fill="#17331D" stroke="#55C66C" stroke-width="0.2"/>
</svg>
