<svg width="34" height="36" viewBox="0 0 34 36" fill="none" xmlns="http://www.w3.org/2000/svg">
<path d="M16.7195 0.580566C18.9366 0.580566 21.0629 1.49819 22.6307 3.13157C24.1985 4.76495 25.0792 6.98029 25.0792 9.29024C25.0792 11.6002 24.1985 13.8155 22.6307 15.4489C21.0629 17.0823 18.9366 17.9999 16.7195 17.9999C14.5023 17.9999 12.376 17.0823 10.8082 15.4489C9.24049 13.8155 8.35974 11.6002 8.35974 9.29024C8.35974 6.98029 9.24049 4.76495 10.8082 3.13157C12.376 1.49819 14.5023 0.580566 16.7195 0.580566ZM16.7195 22.3548C25.957 22.3548 33.4389 26.2523 33.4389 31.0644V35.4193H0V31.0644C0 26.2523 7.48196 22.3548 16.7195 22.3548Z" fill="#17331D"/>
</svg>
